#!OML:ASF I:\Actors\actors\Patient Classification 1\Patient 1\Session 1\Subject1.ASF
:FULLY-SPECIFIED
:DEGREES
1519
root -0.0432961 17.5539 9.29374 13.7209 -11.7955 -8.48821
lowerback -2.03569 1.16516 8.76089
upperback -11.4247 1.98737 1.23174
thorax -10.9359 0.182711 -3.68021
lowerneck -10.5751 -0.195856 0.944561
upperneck 20.9639 -2.04919 7.00418
head 8.3252 -0.219557 1.97167
rclavicle 1.39149e-015 -3.04141e-014
rhumerus -12.184 42.6258 -102.304
rradius 133.167
rwrist 29.0526
rhand -12.5019 -26.3811
rfingers 7.12502
rthumb 13.5733 -55.9187
lclavicle 1.39149e-015 -3.04141e-014
lhumerus -28.1196 -35.9354 108.006
lradius 138.111
lwrist -5.94052
lhand -19.5349 -44.6285
lfingers 7.12502
lthumb 6.78884 -14.7574
rfemur -6.85368 27.0595 23.3599
rtibia 3.71525
rfoot -11.198 -24.6836
rtoes -0.973461
lfemur -170.242 -132.236 -197.704
ltibia -4.35011
lfoot -55.4615 61.2856
ltoes 28.5149
1520
root -0.0443106 17.551 9.28817 13.7387 -11.5157 -8.9105
lowerback -1.90296 1.29795 9.34304
upperback -11.3648 2.20112 1.17822
thorax -10.9171 0.232074 -4.07766
lowerneck -10.5706 -0.489766 0.475434
upperneck 20.6938 -2.42004 7.33608
head 8.25387 -0.40661 2.12046
rclavicle 2.40032e-014 2.62396e-014
rhumerus -12.5627 40.6928 -101.902
rradius 132.668
rwrist 30.9296
rhand -12.232 -26.4446
rfingers 7.12502
rthumb 13.8334 -55.9646
lclavicle 2.40032e-014 2.62396e-014
lhumerus -28.0319 -33.6615 107.04
lradius 137.116
lwrist -9.81749
lhand -22.6654 -48.6079
lfingers 7.12502
lthumb 3.76621 -18.6615
rfemur -6.73641 26.937 23.9549
rtibia 3.69832
rfoot -11.2015 -24.7165
rtoes -0.502489
lfemur -170.329 -132.515 -197.03
ltibia -4.45985
lfoot -54.4963 61.2346
ltoes 28.1419
1521
root -0.0373494 17.5406 9.27948 13.5997 -11.0231 -10.0921
lowerback -0.901094 1.43836 10.9911
upperback -11.6504 2.62732 1.17108
thorax -11.807 0.221777 -5.05854
lowerneck -9.98366 -0.745911 0.367273
upperneck 20.6475 -2.76133 7.44945
head 8.14637 -0.579755 2.14113
rclavicle 4.36332e-014 1.27222e-014
rhumerus -14.1364 38.1727 -102.179
rradius 131.938
rwrist 32.1566
rhand -11.4565 -26.408
rfingers 7.12502
rthumb 14.5807 -55.8755
lclavicle 4.36332e-014 1.27222e-014
lhumerus -28.9866 -30.5018 106.385
lradius 135.806
lwrist -13.7739
lhand -27.8575 -51.4067
lfingers 7.12502
lthumb -1.2483 -21.4306
rfemur -6.1646 26.6159 25.6501
rtibia 3.62276
rfoot -11.1554 -24.6067
rtoes -0.404375
lfemur -170.009 -133.272 -195.679
ltibia -4.76723
lfoot -52.4371 61.0563
ltoes 27.1449
1522
root -0.0565252 17.5526 9.28199 13.6478 -11.2705 -9.17813
lowerback -1.70896 1.54759 9.60797
upperback -11.4324 2.57093 1.05358
thorax -11.0543 0.372723 -4.3905
lowerneck -9.88518 -0.845762 0.201448
upperneck 20.3578 -2.8077 7.28479
head 8.03139 -0.639993 2.10545
rclavicle 1.2424e-014 -1.70955e-014
rhumerus -14.3712 35.776 -101.301
rradius 130.454
rwrist 32.4569
rhand -12.2002 -25.2564
rfingers 7.12502
rthumb 13.864 -54.7743
lclavicle 1.2424e-014 -1.70955e-014
lhumerus -28.3379 -25.8137 104.573
lradius 134.034
lwrist -13.8682
lhand -30.4324 -55.0878
lfingers 7.12502
lthumb -3.73502 -25.1408
rfemur -6.51008 27.1623 24.4511
rtibia 3.65341
rfoot -11.215 -25.0793
rtoes -0.169842
lfemur -170.39 -132.958 -196.453
ltibia -4.60308
lfoot -53.6079 60.9027
ltoes 27.937
1523
root -0.0656958 17.5566 9.28105 13.577 -11.2553 -8.73981
lowerback -1.90443 1.59157 9.01308
upperback -11.4243 2.57295 0.96154
thorax -10.9231 0.43274 -4.15518
lowerneck -9.78988 -0.969522 0.15521
upperneck 20.4926 -2.92006 7.01099
head 8.05887 -0.721503 2.01249
rclavicle -2.75317e-014 3.77691e-014
rhumerus -15.3346 32.998 -100.778
rradius 128.62
rwrist 32.2516
rhand -14.2875 -24.983
rfingers 7.12502
rthumb 11.8519 -54.6276
lclavicle -2.75317e-014 3.77691e-014
lhumerus -28.4669 -20.9732 102.855
lradius 131.821
lwrist -12.3378
lhand -33.3742 -58.2475
lfingers 7.12502
lthumb -6.57546 -28.3695
rfemur -6.53031 27.1272 23.9501
rtibia 3.60747
rfoot -11.2158 -25.1329
rtoes -0.230294
lfemur -170.474 -132.868 -196.866
ltibia -4.55717
lfoot -53.6127 60.909
ltoes 28.0423
1524
root -0.0724713 17.5568 9.27781 13.4886 -11.0722 -8.61262
lowerback -2.00189 1.61238 8.846
upperback -11.4023 2.57813 0.90839
thorax -10.836 0.453544 -4.11732
lowerneck -9.73593 -1.09047 0.0888381
upperneck 20.6266 -3.04446 6.82522
head 8.09577 -0.801143 1.95101
rclavicle -6.4605e-015 -1.74931e-014
rhumerus -16.4371 29.754 -100.177
rradius 126.004
rwrist 32.451
rhand -16.787 -24.8878
rfingers 7.12502
rthumb 9.44083 -54.6564
lclavicle -6.4605e-015 -1.74931e-014
lhumerus -28.7786 -16.1076 100.928
lradius 128.914
lwrist -10.555
lhand -36.7885 -61.5696
lfingers 7.12502
lthumb -9.87063 -31.821
rfemur -6.42676 27.0017 23.8831
rtibia 3.57394
rfoot -11.2554 -25.1424
rtoes -0.31776
lfemur -170.607 -133.136 -196.825
ltibia -4.55763
lfoot -52.4518 60.9218
ltoes 27.4803
1525
root -0.0798167 17.5542 9.27523 13.4 -10.8578 -8.62632
lowerback -2.04516 1.65256 8.86609
upperback -11.3964 2.62392 0.843862
thorax -10.7935 0.473103 -4.19979
lowerneck -9.58503 -1.27277 -0.176857
upperneck 20.6092 -3.27194 6.94664
head 8.07614 -0.921795 2.01416
rclavicle 8.84592e-015 2.62396e-014
rhumerus -17.8108 26.3782 -99.5985
rradius 123.017
rwrist 31.981
rhand -18.1008 -26.0877
rfingers 7.12502
rthumb 8.17309 -55.9096
lclavicle 8.84592e-015 2.62396e-014
lhumerus -29.3442 -11.4375 98.8273
lradius 125.255
lwrist -9.12295
lhand -39.9068 -63.6752
lfingers 7.12502
lthumb -12.8779 -34.0925
rfemur -6.32119 26.9162 23.9961
rtibia 3.60534
rfoot -11.4108 -25.1839
rtoes 0.0131223
lfemur -170.719 -133.395 -196.645
ltibia -4.52682
lfoot -51.4731 60.833
ltoes 27.0292
